<svg class="copy-color copy-svg" width="1.188rem" height="1.5rem" viewBox="0 0 19 24" fill="#000000" xmlns="http://www.w3.org/2000/svg">
    <path fill="white" id="Vector" d="M8.82143 0.5H14.0846C14.6232 0.5 15.1406 0.729102 15.5223 1.1334L18.402 4.18359C18.7837 4.58789 19 5.13594 19 5.70645V15.5938C19 16.7842 18.0882 17.75 16.9643 17.75H8.82143C7.69754 17.75 6.78571 16.7842 6.78571 15.5938V2.65625C6.78571 1.46582 7.69754 0.5 8.82143 0.5ZM2.03571 6.25H5.42857V9.125H2.71429V20.625H10.8571V19.1875H13.5714V21.3438C13.5714 22.5342 12.6596 23.5 11.5357 23.5H2.03571C0.91183 23.5 0 22.5342 0 21.3438V8.40625C0 7.21582 0.91183 6.25 2.03571 6.25Z"></path>
</svg>