<svg class="streak-svg menu-icons glow" alt="Sequência" width="2.188rem" height="2.313rem" viewBox="0 0 35 37" fill="none" xmlns="http://www.w3.org/2000/svg">
    <path fill="white" d="M12.5485 0.49844C13.1454 -0.0259732 14.0715 -0.0187895 14.6684 0.505624C16.7806 2.36621 18.7628 4.37048 20.6148 6.53997C21.4567 5.50551 22.4133 4.37766 23.4465 3.45814C24.0511 2.92655 24.9847 2.92655 25.5893 3.46533C28.2373 5.83597 30.4796 8.96808 32.0562 11.9422C33.6097 14.8731 34.6429 17.8687 34.6429 19.9808C34.6429 29.1472 27.0051 36.8913 17.5 36.8913C7.88779 36.8913 0.357178 29.14 0.357178 19.9736C0.357178 17.215 1.71942 13.8458 3.83167 10.5126C5.96687 7.12904 8.98218 3.60182 12.5485 0.49844ZM17.6301 29.9949C19.5664 29.9949 21.2806 29.4921 22.8954 28.4863C26.1174 26.3743 26.9822 22.1503 25.046 18.8314C24.7016 18.1848 23.8215 18.1417 23.324 18.6877L21.3954 20.7925C20.8903 21.3385 19.9796 21.3241 19.5051 20.7566C18.2424 19.248 15.9847 16.5541 14.699 15.024C14.2169 14.4493 13.2985 14.4421 12.8087 15.0168C10.222 18.0699 8.92095 19.9951 8.92095 22.1574C8.92861 27.0783 12.8011 29.9949 17.6301 29.9949Z"></path>
</svg>