<svg width="42" height="46" viewBox="0 0 42 46" fill="none" xmlns="http://www.w3.org/2000/svg">
<path d="M26.4997 26.9097C25.0188 28.5736 22.346 28.5584 20.9176 26.7682L26.4997 26.9097ZM26.4997 26.9097C26.5234 28.424 25.8443 29.8594 24.6426 30.6976C23.5381 31.4129 22.4184 31.7503 21.1214 31.7503C19.3858 31.7503 17.9795 31.203 17.0383 30.3594C16.1287 29.5441 15.4959 28.3168 15.4929 26.5779C15.4934 25.6467 15.9062 24.6312 17.5116 22.5063C18.6575 23.9386 20.0423 25.6717 20.9167 26.7671L26.4997 26.9097ZM20.0535 3.55203L20.051 3.54977C18.555 2.17161 16.2208 2.1327 14.69 3.53786C11.1955 6.72728 8.22564 10.3631 6.10198 13.8915C4.04379 17.2979 2.5 21.0671 2.5 24.4422C2.5 34.6816 10.5377 43.5 21 43.5C31.351 43.5 39.5 34.7005 39.5 24.4493C39.5 21.7878 38.3212 18.43 36.8169 15.4539L36.8168 15.4538C35.2487 12.3518 32.9949 9.02902 30.2611 6.46255L30.2569 6.45862C28.7335 5.03503 26.3787 5.03562 24.8553 6.44021L24.8498 6.44533L24.8443 6.4505C24.5113 6.7612 24.1894 7.08905 23.8806 7.42319C22.6575 6.06735 21.3816 4.77885 20.0535 3.55203Z" fill="#9D9D9D" stroke="black" stroke-width="5"/>
</svg>
