<svg class="config-svg menu-icons glow" alt="Configurações" width="2.188rem" height="2.313rem" viewBox="0 0 35 37" fill="none" xmlns="http://www.w3.org/2000/svg">
    <path fill="white" d="M34.8365 12.0395C35.0678 12.6682 34.8727 13.3691 34.374 13.8172L31.2449 16.6645C31.3244 17.2643 31.3678 17.8785 31.3678 18.5C31.3678 19.1215 31.3244 19.7357 31.2449 20.3355L34.374 23.1828C34.8727 23.6309 35.0678 24.3318 34.8365 24.9605C34.5186 25.8205 34.1355 26.6443 33.6947 27.4393L33.3551 28.0246C32.8781 28.8195 32.3434 29.5711 31.758 30.2793C31.3316 30.7996 30.6234 30.973 29.9875 30.7707L25.9623 29.4916C24.9939 30.2359 23.9244 30.8574 22.7826 31.3271L21.8793 35.4535C21.7348 36.1111 21.2289 36.6314 20.5641 36.7398C19.5668 36.9061 18.5406 36.9928 17.4928 36.9928C16.4449 36.9928 15.4187 36.9061 14.4215 36.7398C13.7566 36.6314 13.2508 36.1111 13.1062 35.4535L12.2029 31.3271C11.0611 30.8574 9.9916 30.2359 9.02324 29.4916L5.00527 30.7779C4.36933 30.9803 3.66113 30.7996 3.23476 30.2865C2.64941 29.5783 2.11464 28.8268 1.63769 28.0318L1.29804 27.4465C0.857221 26.6516 0.474213 25.8277 0.156244 24.9678C-0.0750058 24.3391 0.120111 23.6381 0.618744 23.19L3.74785 20.3428C3.66835 19.7357 3.62499 19.1215 3.62499 18.5C3.62499 17.8785 3.66835 17.2643 3.74785 16.6645L0.618744 13.8172C0.120111 13.3691 -0.0750058 12.6682 0.156244 12.0395C0.474213 11.1795 0.857221 10.3557 1.29804 9.56074L1.63769 8.97539C2.11464 8.18047 2.64941 7.42891 3.23476 6.7207C3.66113 6.20039 4.36933 6.02695 5.00527 6.2293L9.03046 7.5084C9.99882 6.76406 11.0684 6.14258 12.2102 5.67285L13.1135 1.54648C13.258 0.888867 13.7639 0.368555 14.4287 0.260156C15.426 0.0867187 16.4521 0 17.5 0C18.5478 0 19.574 0.0867188 20.5713 0.25293C21.2361 0.361328 21.742 0.881641 21.8865 1.53926L22.7898 5.66563C23.9316 6.13535 25.0012 6.75684 25.9695 7.50117L29.9947 6.22207C30.6307 6.01973 31.3389 6.20039 31.7652 6.71348C32.3506 7.42168 32.8853 8.17324 33.3623 8.96816L33.702 9.55352C34.1428 10.3484 34.5258 11.1723 34.8437 12.0322L34.8365 12.0395ZM17.5 24.2812C19.0333 24.2812 20.5038 23.6722 21.588 22.588C22.6722 21.5038 23.2812 20.0333 23.2812 18.5C23.2812 16.9667 22.6722 15.4962 21.588 14.412C20.5038 13.3278 19.0333 12.7188 17.5 12.7188C15.9667 12.7188 14.4962 13.3278 13.412 14.412C12.3278 15.4962 11.7187 16.9667 11.7187 18.5C11.7187 20.0333 12.3278 21.5038 13.412 22.588C14.4962 23.6722 15.9667 24.2812 17.5 24.2812Z"></path>
</svg>