<svg width="46" height="47" viewBox="0 0 46 47" fill="none" xmlns="http://www.w3.org/2000/svg">
<mask id="path-1-outside-1_210_2" maskUnits="userSpaceOnUse" x="-0.94043" y="0" width="47" height="47" fill="black">
<rect fill="white" x="-0.94043" width="47" height="47"/>
<path d="M39.8365 17.0395C40.0678 17.6682 39.8727 18.3691 39.374 18.8172L36.2449 21.6645C36.3244 22.2643 36.3678 22.8785 36.3678 23.5C36.3678 24.1215 36.3244 24.7357 36.2449 25.3355L39.374 28.1828C39.8727 28.6309 40.0678 29.3318 39.8365 29.9605C39.5186 30.8205 39.1355 31.6443 38.6947 32.4393L38.3551 33.0246C37.8781 33.8195 37.3434 34.5711 36.758 35.2793C36.3316 35.7996 35.6234 35.973 34.9875 35.7707L30.9623 34.4916C29.9939 35.2359 28.9244 35.8574 27.7826 36.3271L26.8793 40.4535C26.7348 41.1111 26.2289 41.6314 25.5641 41.7398C24.5668 41.9061 23.5406 41.9928 22.4928 41.9928C21.4449 41.9928 20.4187 41.9061 19.4215 41.7398C18.7566 41.6314 18.2508 41.1111 18.1062 40.4535L17.2029 36.3271C16.0611 35.8574 14.9916 35.2359 14.0232 34.4916L10.0053 35.7779C9.36933 35.9803 8.66113 35.7996 8.23476 35.2865C7.64941 34.5783 7.11464 33.8268 6.63769 33.0318L6.29804 32.4465C5.85722 31.6516 5.47421 30.8277 5.15624 29.9678C4.92499 29.3391 5.12011 28.6381 5.61874 28.19L8.74785 25.3428C8.66835 24.7357 8.62499 24.1215 8.62499 23.5C8.62499 22.8785 8.66835 22.2643 8.74785 21.6645L5.61874 18.8172C5.12011 18.3691 4.92499 17.6682 5.15624 17.0395C5.47421 16.1795 5.85722 15.3557 6.29804 14.5607L6.63769 13.9754C7.11464 13.1805 7.64941 12.4289 8.23476 11.7207C8.66113 11.2004 9.36933 11.027 10.0053 11.2293L14.0305 12.5084C14.9988 11.7641 16.0684 11.1426 17.2102 10.6729L18.1135 6.54648C18.258 5.88887 18.7639 5.36855 19.4287 5.26016C20.426 5.08672 21.4521 5 22.5 5C23.5478 5 24.574 5.08672 25.5713 5.25293C26.2361 5.36133 26.742 5.88164 26.8865 6.53926L27.7898 10.6656C28.9316 11.1354 30.0012 11.7568 30.9695 12.5012L34.9947 11.2221C35.6307 11.0197 36.3389 11.2004 36.7652 11.7135C37.3506 12.4217 37.8853 13.1732 38.3623 13.9682L38.702 14.5535C39.1428 15.3484 39.5258 16.1723 39.8437 17.0322L39.8365 17.0395ZM22.5 29.2812C24.0333 29.2812 25.5038 28.6722 26.588 27.588C27.6722 26.5038 28.2812 25.0333 28.2812 23.5C28.2812 21.9667 27.6722 20.4962 26.588 19.412C25.5038 18.3278 24.0333 17.7188 22.5 17.7188C20.9667 17.7188 19.4962 18.3278 18.412 19.412C17.3278 20.4962 16.7187 21.9667 16.7187 23.5C16.7187 25.0333 17.3278 26.5038 18.412 27.588C19.4962 28.6722 20.9667 29.2812 22.5 29.2812Z"/>
</mask>
<path d="M39.8365 17.0395C40.0678 17.6682 39.8727 18.3691 39.374 18.8172L36.2449 21.6645C36.3244 22.2643 36.3678 22.8785 36.3678 23.5C36.3678 24.1215 36.3244 24.7357 36.2449 25.3355L39.374 28.1828C39.8727 28.6309 40.0678 29.3318 39.8365 29.9605C39.5186 30.8205 39.1355 31.6443 38.6947 32.4393L38.3551 33.0246C37.8781 33.8195 37.3434 34.5711 36.758 35.2793C36.3316 35.7996 35.6234 35.973 34.9875 35.7707L30.9623 34.4916C29.9939 35.2359 28.9244 35.8574 27.7826 36.3271L26.8793 40.4535C26.7348 41.1111 26.2289 41.6314 25.5641 41.7398C24.5668 41.9061 23.5406 41.9928 22.4928 41.9928C21.4449 41.9928 20.4187 41.9061 19.4215 41.7398C18.7566 41.6314 18.2508 41.1111 18.1062 40.4535L17.2029 36.3271C16.0611 35.8574 14.9916 35.2359 14.0232 34.4916L10.0053 35.7779C9.36933 35.9803 8.66113 35.7996 8.23476 35.2865C7.64941 34.5783 7.11464 33.8268 6.63769 33.0318L6.29804 32.4465C5.85722 31.6516 5.47421 30.8277 5.15624 29.9678C4.92499 29.3391 5.12011 28.6381 5.61874 28.19L8.74785 25.3428C8.66835 24.7357 8.62499 24.1215 8.62499 23.5C8.62499 22.8785 8.66835 22.2643 8.74785 21.6645L5.61874 18.8172C5.12011 18.3691 4.92499 17.6682 5.15624 17.0395C5.47421 16.1795 5.85722 15.3557 6.29804 14.5607L6.63769 13.9754C7.11464 13.1805 7.64941 12.4289 8.23476 11.7207C8.66113 11.2004 9.36933 11.027 10.0053 11.2293L14.0305 12.5084C14.9988 11.7641 16.0684 11.1426 17.2102 10.6729L18.1135 6.54648C18.258 5.88887 18.7639 5.36855 19.4287 5.26016C20.426 5.08672 21.4521 5 22.5 5C23.5478 5 24.574 5.08672 25.5713 5.25293C26.2361 5.36133 26.742 5.88164 26.8865 6.53926L27.7898 10.6656C28.9316 11.1354 30.0012 11.7568 30.9695 12.5012L34.9947 11.2221C35.6307 11.0197 36.3389 11.2004 36.7652 11.7135C37.3506 12.4217 37.8853 13.1732 38.3623 13.9682L38.702 14.5535C39.1428 15.3484 39.5258 16.1723 39.8437 17.0322L39.8365 17.0395ZM22.5 29.2812C24.0333 29.2812 25.5038 28.6722 26.588 27.588C27.6722 26.5038 28.2812 25.0333 28.2812 23.5C28.2812 21.9667 27.6722 20.4962 26.588 19.412C25.5038 18.3278 24.0333 17.7188 22.5 17.7188C20.9667 17.7188 19.4962 18.3278 18.412 19.412C17.3278 20.4962 16.7187 21.9667 16.7187 23.5C16.7187 25.0333 17.3278 26.5038 18.412 27.588C19.4962 28.6722 20.9667 29.2812 22.5 29.2812Z" fill="white"/>
<path d="M39.8365 17.0395C40.0678 17.6682 39.8727 18.3691 39.374 18.8172L36.2449 21.6645C36.3244 22.2643 36.3678 22.8785 36.3678 23.5C36.3678 24.1215 36.3244 24.7357 36.2449 25.3355L39.374 28.1828C39.8727 28.6309 40.0678 29.3318 39.8365 29.9605C39.5186 30.8205 39.1355 31.6443 38.6947 32.4393L38.3551 33.0246C37.8781 33.8195 37.3434 34.5711 36.758 35.2793C36.3316 35.7996 35.6234 35.973 34.9875 35.7707L30.9623 34.4916C29.9939 35.2359 28.9244 35.8574 27.7826 36.3271L26.8793 40.4535C26.7348 41.1111 26.2289 41.6314 25.5641 41.7398C24.5668 41.9061 23.5406 41.9928 22.4928 41.9928C21.4449 41.9928 20.4187 41.9061 19.4215 41.7398C18.7566 41.6314 18.2508 41.1111 18.1062 40.4535L17.2029 36.3271C16.0611 35.8574 14.9916 35.2359 14.0232 34.4916L10.0053 35.7779C9.36933 35.9803 8.66113 35.7996 8.23476 35.2865C7.64941 34.5783 7.11464 33.8268 6.63769 33.0318L6.29804 32.4465C5.85722 31.6516 5.47421 30.8277 5.15624 29.9678C4.92499 29.3391 5.12011 28.6381 5.61874 28.19L8.74785 25.3428C8.66835 24.7357 8.62499 24.1215 8.62499 23.5C8.62499 22.8785 8.66835 22.2643 8.74785 21.6645L5.61874 18.8172C5.12011 18.3691 4.92499 17.6682 5.15624 17.0395C5.47421 16.1795 5.85722 15.3557 6.29804 14.5607L6.63769 13.9754C7.11464 13.1805 7.64941 12.4289 8.23476 11.7207C8.66113 11.2004 9.36933 11.027 10.0053 11.2293L14.0305 12.5084C14.9988 11.7641 16.0684 11.1426 17.2102 10.6729L18.1135 6.54648C18.258 5.88887 18.7639 5.36855 19.4287 5.26016C20.426 5.08672 21.4521 5 22.5 5C23.5478 5 24.574 5.08672 25.5713 5.25293C26.2361 5.36133 26.742 5.88164 26.8865 6.53926L27.7898 10.6656C28.9316 11.1354 30.0012 11.7568 30.9695 12.5012L34.9947 11.2221C35.6307 11.0197 36.3389 11.2004 36.7652 11.7135C37.3506 12.4217 37.8853 13.1732 38.3623 13.9682L38.702 14.5535C39.1428 15.3484 39.5258 16.1723 39.8437 17.0322L39.8365 17.0395ZM22.5 29.2812C24.0333 29.2812 25.5038 28.6722 26.588 27.588C27.6722 26.5038 28.2812 25.0333 28.2812 23.5C28.2812 21.9667 27.6722 20.4962 26.588 19.412C25.5038 18.3278 24.0333 17.7188 22.5 17.7188C20.9667 17.7188 19.4962 18.3278 18.412 19.412C17.3278 20.4962 16.7187 21.9667 16.7187 23.5C16.7187 25.0333 17.3278 26.5038 18.412 27.588C19.4962 28.6722 20.9667 29.2812 22.5 29.2812Z" stroke="black" stroke-width="10" mask="url(#path-1-outside-1_210_2)"/>
</svg>
