<svg class="heart glow-red" width="32" height="28" viewBox="0 0 32 28" fill="none" xmlns="http://www.w3.org/2000/svg">
    <path fill="#EE4B4B" d="M3.1329 16.571L14.1697 27.0305C14.6278 27.4645 15.2325 27.7063 15.8616 27.7063C16.4907 27.7063 17.0953 27.4645 17.5534 27.0305L28.5902 16.571C30.447 14.8163 31.4976 12.3549 31.4976 9.78188V9.42228C31.4976 5.08842 28.4131 1.39318 24.2048 0.680172C21.4197 0.208967 18.5856 1.13278 16.5945 3.154L15.8616 3.89801L15.1286 3.154C13.1375 1.13278 10.3035 0.208967 7.51831 0.680172C3.31003 1.39318 0.225586 5.08842 0.225586 9.42228V9.78188C0.225586 12.3549 1.27613 14.8163 3.1329 16.571Z"></path>
</svg>