<svg width="40" height="36" viewBox="0 0 40 36" fill="none" xmlns="http://www.w3.org/2000/svg">
<path d="M16.794 32.4822L16.7942 32.4823C17.6219 33.2665 18.7181 33.7063 19.8616 33.7063C21.0051 33.7063 22.1014 33.2665 22.929 32.4823L22.9292 32.4822L33.964 22.0246C33.9645 22.0241 33.965 22.0237 33.9655 22.0232C36.2265 19.8858 37.4976 16.8968 37.4976 13.7819V13.4223C37.4976 8.13429 33.7303 3.58783 28.539 2.70827L28.5385 2.7082C25.4162 2.17995 22.249 3.07489 19.8616 5.10708C17.4743 3.07489 14.307 2.17995 11.1847 2.7082L11.1843 2.70827C5.993 3.58783 2.22565 8.13429 2.22565 13.4223V13.7819C2.22565 16.8971 3.49701 19.8863 5.75837 22.0237C5.75868 22.024 5.75899 22.0243 5.7593 22.0246L16.794 32.4822Z" fill="#EE4B4B" stroke="black" stroke-width="4"/>
</svg>