<svg width="47" height="47" viewBox="0 0 47 47" fill="none" xmlns="http://www.w3.org/2000/svg">
<mask id="path-1-outside-1_210_234" maskUnits="userSpaceOnUse" x="0" y="0" width="47" height="47" fill="black">
<rect fill="white" width="47" height="47"/>
<path d="M23.5 42C28.4065 42 33.1121 40.0509 36.5815 36.5815C40.0509 33.1121 42 28.4065 42 23.5C42 18.5935 40.0509 13.8879 36.5815 10.4185C33.1121 6.9491 28.4065 5 23.5 5C18.5935 5 13.8879 6.9491 10.4185 10.4185C6.9491 13.8879 5 18.5935 5 23.5C5 28.4065 6.9491 33.1121 10.4185 36.5815C13.8879 40.0509 18.5935 42 23.5 42ZM17.2707 16.9455C17.8416 15.334 19.3736 14.25 21.0863 14.25H25.2994C27.8215 14.25 29.8594 16.2951 29.8594 18.81C29.8594 20.4432 28.985 21.9535 27.5686 22.7701L25.2344 24.107C25.2199 25.0465 24.4467 25.8125 23.5 25.8125C22.5389 25.8125 21.7656 25.0393 21.7656 24.0781V23.1025C21.7656 22.4811 22.098 21.9102 22.64 21.5994L25.8414 19.7639C26.1811 19.5688 26.3906 19.2074 26.3906 18.8172C26.3906 18.2102 25.8992 17.726 25.2994 17.726H21.0863C20.8406 17.726 20.6238 17.8777 20.5443 18.109L20.5154 18.1957C20.1975 19.099 19.2002 19.5687 18.3041 19.2508C17.408 18.9328 16.9311 17.9355 17.249 17.0395L17.2779 16.9527L17.2707 16.9455ZM21.1875 30.4375C21.1875 29.8242 21.4311 29.236 21.8648 28.8023C22.2985 28.3686 22.8867 28.125 23.5 28.125C24.1133 28.125 24.7015 28.3686 25.1352 28.8023C25.5689 29.236 25.8125 29.8242 25.8125 30.4375C25.8125 31.0508 25.5689 31.639 25.1352 32.0727C24.7015 32.5064 24.1133 32.75 23.5 32.75C22.8867 32.75 22.2985 32.5064 21.8648 32.0727C21.4311 31.639 21.1875 31.0508 21.1875 30.4375Z"/>
</mask>
<path d="M23.5 42C28.4065 42 33.1121 40.0509 36.5815 36.5815C40.0509 33.1121 42 28.4065 42 23.5C42 18.5935 40.0509 13.8879 36.5815 10.4185C33.1121 6.9491 28.4065 5 23.5 5C18.5935 5 13.8879 6.9491 10.4185 10.4185C6.9491 13.8879 5 18.5935 5 23.5C5 28.4065 6.9491 33.1121 10.4185 36.5815C13.8879 40.0509 18.5935 42 23.5 42ZM17.2707 16.9455C17.8416 15.334 19.3736 14.25 21.0863 14.25H25.2994C27.8215 14.25 29.8594 16.2951 29.8594 18.81C29.8594 20.4432 28.985 21.9535 27.5686 22.7701L25.2344 24.107C25.2199 25.0465 24.4467 25.8125 23.5 25.8125C22.5389 25.8125 21.7656 25.0393 21.7656 24.0781V23.1025C21.7656 22.4811 22.098 21.9102 22.64 21.5994L25.8414 19.7639C26.1811 19.5688 26.3906 19.2074 26.3906 18.8172C26.3906 18.2102 25.8992 17.726 25.2994 17.726H21.0863C20.8406 17.726 20.6238 17.8777 20.5443 18.109L20.5154 18.1957C20.1975 19.099 19.2002 19.5687 18.3041 19.2508C17.408 18.9328 16.9311 17.9355 17.249 17.0395L17.2779 16.9527L17.2707 16.9455ZM21.1875 30.4375C21.1875 29.8242 21.4311 29.236 21.8648 28.8023C22.2985 28.3686 22.8867 28.125 23.5 28.125C24.1133 28.125 24.7015 28.3686 25.1352 28.8023C25.5689 29.236 25.8125 29.8242 25.8125 30.4375C25.8125 31.0508 25.5689 31.639 25.1352 32.0727C24.7015 32.5064 24.1133 32.75 23.5 32.75C22.8867 32.75 22.2985 32.5064 21.8648 32.0727C21.4311 31.639 21.1875 31.0508 21.1875 30.4375Z" fill="white"/>
<path d="M23.5 42C28.4065 42 33.1121 40.0509 36.5815 36.5815C40.0509 33.1121 42 28.4065 42 23.5C42 18.5935 40.0509 13.8879 36.5815 10.4185C33.1121 6.9491 28.4065 5 23.5 5C18.5935 5 13.8879 6.9491 10.4185 10.4185C6.9491 13.8879 5 18.5935 5 23.5C5 28.4065 6.9491 33.1121 10.4185 36.5815C13.8879 40.0509 18.5935 42 23.5 42ZM17.2707 16.9455C17.8416 15.334 19.3736 14.25 21.0863 14.25H25.2994C27.8215 14.25 29.8594 16.2951 29.8594 18.81C29.8594 20.4432 28.985 21.9535 27.5686 22.7701L25.2344 24.107C25.2199 25.0465 24.4467 25.8125 23.5 25.8125C22.5389 25.8125 21.7656 25.0393 21.7656 24.0781V23.1025C21.7656 22.4811 22.098 21.9102 22.64 21.5994L25.8414 19.7639C26.1811 19.5688 26.3906 19.2074 26.3906 18.8172C26.3906 18.2102 25.8992 17.726 25.2994 17.726H21.0863C20.8406 17.726 20.6238 17.8777 20.5443 18.109L20.5154 18.1957C20.1975 19.099 19.2002 19.5687 18.3041 19.2508C17.408 18.9328 16.9311 17.9355 17.249 17.0395L17.2779 16.9527L17.2707 16.9455ZM21.1875 30.4375C21.1875 29.8242 21.4311 29.236 21.8648 28.8023C22.2985 28.3686 22.8867 28.125 23.5 28.125C24.1133 28.125 24.7015 28.3686 25.1352 28.8023C25.5689 29.236 25.8125 29.8242 25.8125 30.4375C25.8125 31.0508 25.5689 31.639 25.1352 32.0727C24.7015 32.5064 24.1133 32.75 23.5 32.75C22.8867 32.75 22.2985 32.5064 21.8648 32.0727C21.4311 31.639 21.1875 31.0508 21.1875 30.4375Z" stroke="black" stroke-width="10" mask="url(#path-1-outside-1_210_234)"/>
</svg>
