<svg class="tutorial-svg menu-icons glow" alt="Como jogar" width="2.188rem" height="2.313rem" viewBox="0 0 37 37" fill="none" xmlns="http://www.w3.org/2000/svg">
    <path fill="white" d="M18.5 37C23.4065 37 28.1121 35.0509 31.5815 31.5815C35.0509 28.1121 37 23.4065 37 18.5C37 13.5935 35.0509 8.88795 31.5815 5.41852C28.1121 1.9491 23.4065 0 18.5 0C13.5935 0 8.88795 1.9491 5.41852 5.41852C1.9491 8.88795 0 13.5935 0 18.5C0 23.4065 1.9491 28.1121 5.41852 31.5815C8.88795 35.0509 13.5935 37 18.5 37ZM12.2707 11.9455C12.8416 10.334 14.3736 9.25 16.0863 9.25H20.2994C22.8215 9.25 24.8594 11.2951 24.8594 13.81C24.8594 15.4432 23.985 16.9535 22.5686 17.7701L20.2344 19.107C20.2199 20.0465 19.4467 20.8125 18.5 20.8125C17.5389 20.8125 16.7656 20.0393 16.7656 19.0781V18.1025C16.7656 17.4811 17.098 16.9102 17.64 16.5994L20.8414 14.7639C21.1811 14.5688 21.3906 14.2074 21.3906 13.8172C21.3906 13.2102 20.8992 12.726 20.2994 12.726H16.0863C15.8406 12.726 15.6238 12.8777 15.5443 13.109L15.5154 13.1957C15.1975 14.099 14.2002 14.5687 13.3041 14.2508C12.408 13.9328 11.9311 12.9355 12.249 12.0395L12.2779 11.9527L12.2707 11.9455ZM16.1875 25.4375C16.1875 24.8242 16.4311 24.236 16.8648 23.8023C17.2985 23.3686 17.8867 23.125 18.5 23.125C19.1133 23.125 19.7015 23.3686 20.1352 23.8023C20.5689 24.236 20.8125 24.8242 20.8125 25.4375C20.8125 26.0508 20.5689 26.639 20.1352 27.0727C19.7015 27.5064 19.1133 27.75 18.5 27.75C17.8867 27.75 17.2985 27.5064 16.8648 27.0727C16.4311 26.639 16.1875 26.0508 16.1875 25.4375Z"></path>
</svg>